<svg xmlns="http://www.w3.org/2000/svg" viewBox="0 0 36 36"><path fill-rule="evenodd" d="M30.833 19.5c.646 0 1.167.523 1.167 1.167v3.5A5.84 5.84 0 0 1 26.167 30H9.833A5.84 5.84 0 0 1 4 24.167v-3.5a1.166 1.166 0 1 1 2.333 0v3.5c0 1.93 1.57 3.5 3.5 3.5h16.334c1.93 0 3.5-1.57 3.5-3.5v-3.5c0-.644.521-1.167 1.166-1.167zM18 2c.645 0 1.167.523 1.167 1.167v11.666H21.5a1.168 1.168 0 0 1 .933 1.867l-3.5 4.667c-.015.02-.04.026-.054.045a1.139 1.139 0 0 1-.27.225c-.04.026-.075.06-.119.08-.15.07-.314.116-.49.116s-.34-.045-.489-.115c-.045-.021-.078-.055-.12-.08a1.139 1.139 0 0 1-.27-.226c-.016-.019-.04-.026-.054-.045l-3.5-4.667a1.168 1.168 0 0 1 .933-1.867h2.333V3.167C16.833 2.523 17.355 2 18 2z"/></svg>