<svg xmlns="http://www.w3.org/2000/svg" viewBox="0 0 36 36"><path fill-rule="evenodd" d="M26.344 33.15c-.4 0-.802-.098-1.172-.295l-6.886-3.68a.606.606 0 0 0-.572 0l-6.886 3.68a2.466 2.466 0 0 1-2.62-.175 2.52 2.52 0 0 1-1.015-2.483l1.315-7.795a.667.667 0 0 0-.185-.584l-5.571-5.52a2.529 2.529 0 0 1-.623-2.6 2.494 2.494 0 0 1 2.012-1.704l7.7-1.137a.628.628 0 0 0 .47-.352l3.444-7.091A2.482 2.482 0 0 1 18 2c.961 0 1.822.542 2.245 1.414l3.444 7.091c.092.19.268.322.47.352l7.7 1.137c.941.14 1.712.792 2.012 1.704a2.528 2.528 0 0 1-.623 2.6l-5.571 5.52a.667.667 0 0 0-.185.584l1.315 7.795a2.52 2.52 0 0 1-2.463 2.953zM18 27.228c.402 0 .803.097 1.17.293l6.886 3.68c.3.16.548.023.641-.043a.653.653 0 0 0 .261-.65l-1.315-7.794a2.543 2.543 0 0 1 .714-2.228l5.572-5.52a.662.662 0 0 0 .16-.683.62.62 0 0 0-.504-.434l-7.7-1.137a2.503 2.503 0 0 1-1.883-1.388l-3.443-7.091A.607.607 0 0 0 18 3.875a.607.607 0 0 0-.559.358l-3.443 7.091a2.502 2.502 0 0 1-1.884 1.388l-7.699 1.137a.62.62 0 0 0-.504.434.663.663 0 0 0 .16.683l5.572 5.52c.585.58.852 1.412.714 2.228L9.042 30.51a.653.653 0 0 0 .26.649.595.595 0 0 0 .642.043l6.887-3.68A2.48 2.48 0 0 1 18 27.228z"/></svg>